<?xml version="1.0" encoding="UTF-8"?>
<svg xmlns="http://www.w3.org/2000/svg" xmlns:xlink="http://www.w3.org/1999/xlink" width="35px" height="32px" viewBox="0 0 35 32" version="1.1">
<defs>
<linearGradient id="linear0" gradientUnits="userSpaceOnUse" x1="205.548996" y1="20.016899" x2="204.337997" y2="342.460999" >
<stop offset="0" style="stop-color:rgb(8.235294%,58.431373%,71.372549%);stop-opacity:1;"/>
<stop offset="1" style="stop-color:rgb(8.235294%,58.431373%,71.372549%);stop-opacity:0;"/>
</linearGradient>
</defs>
<g id="surface1">
<path style="fill:none;stroke-width:16;stroke-linecap:butt;stroke-linejoin:miter;stroke:rgb(21.176471%,45.882353%,92.156863%);stroke-opacity:1;stroke-miterlimit:4;" d="M 314.876562 203.496094 L 314.876562 349.447266 L 162.490625 209.066406 M 314.876562 203.496094 L 283.021875 203.585938 M 314.876562 203.496094 L 337.895312 203.585938 L 380.9875 171.107422 L 314.876562 171.107422 M 162.490625 209.066406 L 118.039062 170.972656 L 157.50625 171.107422 M 162.490625 209.066406 L 65.521875 301.470703 L 20.571875 301.470703 L 137.478125 189.166016 M 200.507812 171.107422 L 283.021875 96.492188 L 283.021875 171.107422 M 200.507812 171.107422 L 283.021875 171.107422 M 200.507812 171.107422 L 157.50625 171.107422 M 283.021875 203.585938 L 210.839062 203.136719 L 283.021875 271.103516 Z M 283.021875 171.107422 L 314.876562 171.107422 M 157.50625 171.107422 L 316.145312 20.439453 L 314.876562 171.107422 " transform="matrix(0.0862069,0,0,0.0869565,0,0)"/>
<path style="fill:none;stroke-width:16;stroke-linecap:butt;stroke-linejoin:miter;stroke:url(#linear0);stroke-miterlimit:4;" d="M 314.876562 203.496094 L 314.876562 349.447266 L 162.490625 209.066406 M 314.876562 203.496094 L 283.021875 203.585938 M 314.876562 203.496094 L 337.895312 203.585938 L 380.9875 171.107422 L 314.876562 171.107422 M 162.490625 209.066406 L 118.039062 170.972656 L 157.50625 171.107422 M 162.490625 209.066406 L 65.521875 301.470703 L 20.571875 301.470703 L 137.478125 189.166016 M 200.507812 171.107422 L 283.021875 96.492188 L 283.021875 171.107422 M 200.507812 171.107422 L 283.021875 171.107422 M 200.507812 171.107422 L 157.50625 171.107422 M 283.021875 203.585938 L 210.839062 203.136719 L 283.021875 271.103516 Z M 283.021875 171.107422 L 314.876562 171.107422 M 157.50625 171.107422 L 316.145312 20.439453 L 314.876562 171.107422 " transform="matrix(0.0862069,0,0,0.0869565,0,0)"/>
</g>
</svg>
